<?xml version="1.0" standalone="no"?>
<!DOCTYPE svg PUBLIC "-//W3C//DTD SVG 20010904//EN"
 "http://www.w3.org/TR/2001/REC-SVG-20010904/DTD/svg10.dtd">
<svg version="1.0" xmlns="http://www.w3.org/2000/svg"
 width="300.000000pt" height="300.000000pt" viewBox="0 0 300.000000 300.000000"
 preserveAspectRatio="xMidYMid meet">
<metadata>
Created by potrace 1.10, written by Peter Selinger 2001-2011
</metadata>
<g transform="translate(0.000000,300.000000) scale(0.100000,-0.100000)"
fill="#000000" stroke="none">
<path d="M1473 2631 c-19 -40 -58 -94 -93 -132 -56 -60 -61 -63 -72 -44 -19
33 -78 84 -121 107 -52 26 -151 35 -203 18 -29 -10 -39 -10 -42 -1 -9 27 -59
75 -97 92 -117 54 -267 -15 -282 -130 -4 -32 -2 -41 14 -49 24 -13 36 -6 56
35 27 52 62 73 125 73 50 0 58 -3 93 -39 34 -33 39 -45 39 -83 0 -52 -26 -92
-65 -102 -25 -6 -64 7 -77 28 -12 18 -17 2 -9 -34 8 -41 42 -63 87 -56 27 4
31 1 40 -27 5 -17 20 -38 34 -48 34 -25 95 -11 133 31 34 39 35 58 1 31 -35
-27 -57 -26 -91 3 -51 44 -32 132 40 177 48 30 150 23 204 -14 63 -43 91 -105
102 -224 14 -149 42 -191 154 -224 147 -44 200 -152 137 -279 -20 -40 -49 -69
-100 -99 -48 -28 -66 -28 -46 1 23 32 20 75 -5 88 -29 16 -49 -4 -49 -47 0
-72 -43 -108 -166 -139 -38 -10 -113 -87 -120 -124 -8 -39 -24 -28 -24 16 0
41 22 87 60 129 45 48 80 106 80 132 0 36 -27 81 -59 98 -23 11 -51 13 -123 9
-142 -9 -223 29 -273 129 -41 82 -32 153 28 215 21 22 26 32 15 32 -29 0 -104
68 -129 117 -44 87 -151 111 -240 54 -103 -65 -107 -210 -7 -271 39 -24 69
-25 108 -5 52 27 68 96 30 130 -30 27 -70 13 -70 -25 0 -35 -23 -41 -40 -11
-32 61 9 121 82 121 32 0 47 -7 85 -43 l45 -43 -17 -35 c-22 -42 -31 -156 -16
-200 13 -38 13 -38 -69 -71 -37 -14 -78 -21 -127 -22 -72 0 -72 0 -58 -23 8
-12 32 -74 54 -139 22 -64 52 -135 66 -156 15 -22 25 -41 23 -42 -2 -2 -29
-13 -60 -25 -32 -13 -78 -36 -103 -52 l-47 -30 31 -35 c17 -19 42 -57 56 -83
24 -49 60 -85 96 -96 15 -5 19 -16 19 -48 0 -23 9 -79 20 -124 92 -384 445
-665 882 -703 556 -48 1051 340 1073 840 5 118 21 175 62 216 l33 34 -42 27
c-24 15 -78 40 -121 54 l-79 27 44 26 c50 29 146 56 199 56 50 0 69 8 69 31 0
30 -37 47 -130 60 l-88 13 28 55 c43 86 68 181 81 304 6 61 20 137 30 167 11
30 22 62 25 71 5 14 -2 13 -43 -6 -70 -33 -129 -43 -308 -52 -223 -11 -314 -8
-353 9 -36 16 -236 225 -308 321 -24 32 -49 73 -56 92 -6 19 -14 35 -18 34 -3
0 -20 -31 -37 -68z m107 -172 l49 -56 -25 -40 c-13 -22 -34 -47 -47 -56 l-24
-16 -7 61 c-3 34 -6 81 -6 106 0 84 -12 33 -17 -70 -3 -57 -6 -104 -8 -106 -8
-8 -84 77 -90 101 -6 23 -1 34 33 71 22 24 48 59 58 77 l17 34 9 -25 c5 -14
31 -50 58 -81z m-600 79 c23 1 22 0 -10 -17 -39 -21 -50 -19 -50 11 0 15 4 18
18 13 9 -4 28 -7 42 -7z m695 -175 c19 -21 35 -45 35 -54 0 -36 -128 -149
-169 -149 -6 0 -11 20 -11 45 0 41 5 50 45 88 27 26 47 56 51 75 4 18 8 32 10
32 2 0 19 -17 39 -37z m-281 3 c6 -24 81 -106 97 -106 5 0 9 -25 9 -55 l0 -54
-32 18 c-18 10 -46 22 -62 25 -44 11 -19 -14 44 -44 33 -16 50 -30 50 -42 0
-10 -1 -18 -2 -18 -38 7 -103 29 -104 36 0 5 -5 20 -11 34 -5 14 -11 51 -12
82 -1 31 -6 71 -11 89 -7 22 -6 37 1 46 17 19 26 16 33 -11z m386 -122 c42
-56 50 -63 50 -42 0 13 -5 29 -12 36 -9 9 -8 12 5 12 9 0 17 -4 17 -9 0 -4 28
-19 62 -31 l63 -23 -60 -19 c-33 -10 -71 -16 -86 -13 -33 8 -124 -26 -190 -70
-43 -30 -53 -33 -74 -23 -43 19 -32 52 28 86 61 35 137 113 137 142 0 11 2 20
5 20 2 0 27 -30 55 -66z m740 -34 c0 -11 -4 -20 -9 -20 -13 0 -32 26 -24 33
13 14 33 6 33 -13z m-40 -51 c-6 -18 -10 -55 -10 -80 0 -27 -6 -51 -13 -58
-21 -17 -72 -24 -113 -16 l-38 7 30 23 c16 12 40 33 54 45 21 18 17 18 -25 -6
-27 -15 -70 -40 -95 -55 -24 -15 -46 -26 -48 -24 -2 2 15 33 39 70 26 41 45
62 49 55 5 -8 9 -4 13 9 4 15 0 21 -12 21 -23 0 -39 -19 -95 -109 -40 -65 -54
-79 -108 -108 -34 -18 -66 -32 -70 -31 -11 4 64 159 98 204 20 25 23 34 11 34
-23 0 -64 -61 -117 -173 l-48 -102 -67 -33 -67 -33 7 33 c20 92 113 289 115
243 1 -18 2 -17 11 4 12 31 5 37 -26 23 -37 -17 -115 -185 -139 -298 -5 -23
-17 -35 -44 -48 -62 -30 -135 -78 -188 -125 -28 -25 -70 -59 -92 -75 -23 -16
-43 -35 -46 -43 -7 -16 3 -12 51 25 l32 24 64 -26 c105 -42 288 -56 308 -24 4
5 9 3 12 -5 4 -10 -6 -21 -29 -33 -19 -10 -34 -21 -34 -24 0 -3 -14 -14 -32
-24 -17 -11 -44 -34 -60 -51 -15 -18 -43 -40 -61 -49 -17 -8 -59 -41 -92 -72
-102 -96 -142 -126 -166 -122 -30 4 -60 47 -66 94 -3 21 -16 53 -29 70 -29 40
-112 82 -176 90 -26 4 -48 9 -48 12 0 3 11 22 25 43 26 36 67 61 155 94 25 9
56 27 70 40 18 17 37 23 69 23 54 1 111 37 156 99 30 41 49 56 39 29 -9 -23
14 -28 26 -6 6 11 19 60 30 109 21 99 44 152 98 223 30 40 46 51 96 67 130 42
217 54 392 56 99 1 179 7 190 13 25 14 25 12 14 -29z m-1761 18 c8 -10 6 -27
-8 -66 -68 -193 90 -364 323 -348 85 6 109 -1 126 -34 12 -21 4 -63 -10 -54
-4 2 -10 -8 -13 -24 -4 -16 -23 -48 -44 -70 -41 -45 -81 -147 -63 -165 17 -17
11 -23 -21 -24 -17 0 -41 -8 -54 -16 -14 -9 -33 -16 -45 -16 -19 0 -25 16 -21
61 1 9 -9 25 -22 35 l-23 19 58 53 c57 53 58 54 94 42 25 -8 39 -9 46 -2 7 7
-4 18 -37 34 -41 19 -51 30 -66 71 l-18 48 28 -6 c15 -3 38 -1 52 4 22 9 21
10 -16 12 -22 0 -48 0 -58 -1 -10 -1 -26 5 -35 13 -10 9 -34 18 -55 22 -23 5
-45 17 -57 34 -29 39 -83 90 -100 96 -24 8 -26 183 -3 247 18 51 24 56 42 35z
m1031 -119 c-21 -32 -50 -92 -64 -133 -6 -17 -10 -14 -26 21 -10 23 -23 45
-29 48 -23 14 -9 28 61 61 40 19 74 35 76 35 2 0 -6 -15 -18 -32z m-240 -1 c0
-4 5 -5 10 -2 6 3 10 2 10 -3 0 -5 14 -15 30 -22 17 -7 30 -19 30 -26 0 -10
-12 -7 -40 12 -21 14 -56 32 -77 40 l-38 14 38 -2 c20 -1 37 -6 37 -11z m945
-101 c-5 -27 -16 -41 -44 -58 -32 -21 -49 -23 -156 -23 -163 0 -176 10 -80 59
42 22 78 43 81 48 3 5 39 6 84 2 48 -4 85 -2 96 4 25 14 27 11 19 -32z m-796
-83 c0 -31 -2 -34 -9 -18 -12 28 -12 55 0 55 6 0 10 -17 9 -37z m811 12 c0 -9
-6 -12 -15 -8 -11 4 -20 -6 -32 -35 -17 -45 -64 -75 -111 -71 -41 3 -146 -13
-133 -20 18 -11 150 -4 185 10 17 7 39 19 49 27 21 18 22 4 2 -34 -18 -35 -19
-61 -2 -67 6 -3 -3 -6 -20 -6 -36 -1 -42 12 -18 35 8 9 15 20 15 27 0 6 -15
-7 -34 -28 l-34 -38 -169 10 c-128 8 -184 16 -233 33 -36 12 -69 26 -74 31 -5
4 42 33 105 64 l113 57 73 -17 c91 -22 202 -17 253 11 19 10 44 22 55 25 11 4
21 7 23 8 1 1 2 -6 2 -14z m-1747 -71 c43 -46 84 -120 74 -131 -14 -13 -56 14
-80 52 -16 24 -44 58 -64 75 -19 17 -34 33 -32 34 12 9 45 25 49 23 3 -1 27
-25 53 -53z m-92 -11 c31 -35 82 -103 76 -103 -3 0 -24 7 -47 15 -62 22 -62 9
0 -17 47 -19 50 -23 35 -34 -33 -24 -101 -28 -142 -8 -30 15 -40 27 -50 63 -7
24 -15 52 -18 62 -5 14 -1 19 12 20 10 0 34 6 53 13 50 19 54 19 81 -11z m203
-58 c11 -8 27 -15 37 -15 10 0 23 -15 33 -40 23 -57 21 -61 -24 -42 -30 13
-44 27 -57 57 -10 22 -19 43 -21 48 -6 12 12 7 32 -8z m1076 -50 c64 -20 115
-28 209 -32 94 -5 119 -9 105 -17 -11 -6 -40 -11 -66 -12 -35 0 -77 -15 -167
-59 l-119 -58 -84 6 c-84 5 -219 43 -220 62 -1 17 215 145 237 140 11 -2 58
-16 105 -30z m-1121 -44 c24 -7 24 -7 -14 -39 -47 -38 -97 -63 -147 -72 -37
-7 -39 -6 -68 38 -34 52 -38 68 -12 56 40 -18 109 -16 148 5 41 21 54 23 93
12z m1699 3 c12 -4 22 -10 22 -14 0 -12 -49 -18 -53 -7 -8 26 -227 -33 -348
-93 -80 -41 -230 -143 -292 -200 -38 -35 -57 -46 -67 -40 -12 7 -5 17 29 47
200 174 465 297 671 312 8 0 25 -2 38 -5z m-1585 -48 l28 -11 -49 -48 -48 -48
-39 17 c-21 8 -56 14 -77 12 -21 -2 -38 -2 -38 -1 0 1 19 11 43 21 23 11 58
34 77 50 36 32 43 32 103 8z m1459 -32 c-19 -15 -37 -37 -42 -50 -6 -14 -20
-26 -37 -29 -52 -11 -97 -40 -125 -80 -45 -65 -62 -108 -60 -150 1 -36 -3 -43
-36 -65 -53 -36 -52 -36 -52 7 1 94 30 153 96 190 22 13 32 23 22 23 -33 0
-89 -43 -110 -84 -11 -22 -26 -44 -32 -48 -6 -4 -11 -37 -11 -77 0 -60 -3 -73
-24 -95 l-24 -26 22 0 c13 0 37 10 54 22 l30 22 66 -19 c85 -24 154 -30 180
-16 29 16 26 2 -7 -39 -26 -30 -35 -34 -88 -37 -47 -3 -69 1 -106 20 -46 22
-118 27 -118 7 0 -28 249 -65 273 -41 6 6 17 11 24 11 15 0 -11 -42 -59 -95
-16 -16 -28 -34 -28 -38 0 -8 -23 3 -55 26 -19 14 -18 15 15 29 19 8 42 23 50
33 12 15 6 14 -30 -6 -24 -13 -51 -31 -58 -39 -12 -13 -13 -13 -7 0 6 13 5 13
-7 0 -40 -46 -128 -69 -128 -34 0 13 8 15 34 12 19 -2 32 0 29 5 -9 15 -48 25
-64 16 -13 -6 -20 1 -35 31 -13 26 -31 45 -56 56 -74 33 -168 -5 -168 -68 0
-16 -4 -27 -8 -24 -4 2 -27 -4 -50 -14 -29 -13 -47 -30 -59 -54 -23 -50 -11
-54 30 -10 28 30 42 38 70 38 20 0 39 -3 42 -6 11 -11 -7 -58 -22 -58 -13 0
-13 2 -2 17 13 15 11 16 -14 9 -16 -4 -38 -16 -50 -27 -21 -19 -21 -20 -2 -14
16 6 16 3 -5 -14 -30 -24 -39 -26 -46 -7 -3 9 -25 14 -68 15 -55 1 -68 -3
-104 -29 -23 -17 -42 -36 -42 -43 -1 -32 -16 -39 -48 -23 -17 9 -38 16 -46 16
-20 0 -73 -46 -64 -55 4 -4 14 0 23 9 9 9 25 16 34 16 26 0 71 -38 71 -60 0
-18 -3 -18 -36 5 -37 25 -70 34 -59 15 4 -6 -8 -10 -29 -10 -45 0 -136 21
-136 32 0 4 -7 8 -16 8 -9 0 -33 10 -52 22 -20 12 -32 17 -29 11 12 -20 140
-85 212 -108 173 -57 379 -65 548 -21 129 33 264 99 357 173 114 90 227 256
224 326 -1 24 9 37 60 77 33 26 65 46 69 43 9 -5 -1 -106 -14 -138 -4 -11 -8
-14 -8 -7 -2 24 -19 3 -25 -30 -7 -34 -41 -87 -50 -78 -2 3 4 31 15 64 11 32
18 63 15 70 -2 6 -5 3 -5 -6 -1 -10 -5 -18 -10 -18 -5 0 -27 -37 -50 -82 -85
-176 -237 -309 -446 -389 -250 -97 -546 -90 -780 20 -188 88 -292 185 -410
382 -11 18 -26 42 -32 54 -16 26 -17 4 -2 -46 7 -23 16 -36 23 -32 6 4 -1 -6
-16 -21 -15 -16 -25 -33 -22 -40 3 -6 -4 0 -15 13 -22 24 -28 61 -11 61 6 0
10 -4 10 -10 0 -5 5 -10 11 -10 6 0 5 11 -4 27 -8 16 -20 39 -26 53 -7 14 -9
16 -6 5 5 -19 4 -19 -9 -2 -14 18 -31 115 -21 125 3 3 11 0 17 -6 7 -7 30 -12
51 -12 32 0 38 -3 33 -16 -5 -13 -1 -14 27 -9 41 9 87 34 67 36 -8 1 -22 1
-30 0 -8 -1 5 10 30 23 58 32 44 32 -53 0 -89 -31 -127 -25 -127 20 0 13 -6
26 -12 29 -7 2 4 11 25 20 41 18 51 32 11 17 -71 -28 -118 -2 -164 89 -26 52
-20 61 44 68 39 5 51 1 81 -21 19 -15 35 -22 35 -17 0 14 -37 51 -50 51 -5 0
-10 4 -10 9 0 16 93 31 133 21 56 -12 84 -35 111 -88 23 -45 44 -122 34 -122
-3 0 -43 20 -89 44 -84 44 -178 72 -214 64 -13 -2 3 -12 45 -27 101 -36 241
-113 253 -138 13 -29 -6 -75 -26 -67 -14 5 -27 -23 -27 -56 1 -12 4 -11 15 4
8 10 12 23 9 27 -3 5 -1 9 5 9 5 0 10 -24 10 -54 0 -111 49 -210 132 -262 48
-30 127 -48 159 -36 20 7 16 10 -30 15 -143 17 -254 165 -236 316 4 30 9 57
11 60 3 2 15 -5 28 -17 12 -11 45 -31 72 -44 42 -19 67 -23 160 -23 93 0 118
4 159 23 27 12 50 21 51 20 28 -35 34 -135 11 -190 -8 -19 -34 -52 -56 -72
-23 -21 -40 -39 -38 -41 2 -2 19 10 38 28 19 18 43 32 54 32 51 0 74 140 36
223 -19 43 -19 44 -1 64 20 20 20 20 46 -32 24 -47 29 -51 52 -45 37 9 96 52
185 135 87 80 94 81 151 24 l36 -36 -21 -29 c-12 -16 -23 -29 -24 -29 -1 0
-18 16 -37 35 -19 19 -44 35 -56 35 -17 0 -13 -7 24 -45 25 -24 45 -49 45 -54
0 -5 12 -3 28 4 37 19 66 69 59 105 -4 19 0 35 13 51 11 12 20 25 20 28 0 3
-12 -7 -26 -23 -19 -22 -28 -26 -37 -17 -30 30 246 223 378 266 28 9 59 20 70
26 30 14 107 37 130 38 16 1 14 -4 -13 -25z m-1554 -96 c7 -7 12 -18 12 -26 0
-17 -35 -7 -69 19 l-24 19 35 0 c19 0 39 -5 46 -12z m1537 -24 c13 -5 11 -10
-13 -24 -16 -10 -39 -39 -51 -64 -14 -27 -36 -53 -57 -66 -19 -11 -50 -30 -70
-42 l-36 -21 7 24 c26 90 79 172 120 189 24 11 77 12 100 4z m-1479 -70 c16
-23 16 -26 -2 -38 -16 -13 -20 -10 -35 24 -9 21 -22 41 -28 44 -6 4 -11 12
-11 17 0 16 59 -20 76 -47z m1588 37 l24 -10 -26 -52 c-30 -58 -59 -73 -130
-67 l-37 3 58 34 c32 18 57 35 55 37 -6 5 -82 -17 -92 -27 -23 -21 -26 -7 -5
22 41 58 98 80 153 60z m-1235 -87 c59 -17 107 -57 116 -95 9 -36 -31 -80 -97
-110 -74 -33 -230 -34 -300 -2 -97 44 -121 97 -70 154 56 63 229 89 351 53z
m1206 -69 c-2 -5 -6 -22 -9 -37 -4 -16 -13 -28 -21 -28 -7 0 -35 -18 -60 -40
-52 -45 -91 -51 -160 -23 -22 9 -58 15 -80 15 l-40 -2 25 20 c14 11 44 29 67
41 39 19 48 19 100 9 32 -7 65 -16 73 -20 9 -5 20 -3 27 5 9 10 -3 15 -63 26
-41 7 -74 16 -74 19 0 4 10 11 22 17 28 12 196 11 193 -2z m-574 -282 c29 -17
51 -54 63 -105 3 -16 3 -28 -1 -28 -14 1 -69 54 -76 72 -9 25 -51 32 -86 15
-18 -9 -34 -11 -42 -6 -11 7 -7 16 19 39 37 35 79 39 123 13z m556 -30 c0 -9
-6 -28 -13 -42 l-13 -25 -9 25 c-7 18 -6 29 6 42 19 22 29 22 29 0z m-1706
-75 c23 -35 49 -70 58 -78 89 -83 147 -130 204 -167 37 -24 67 -48 67 -53 0
-4 -19 -6 -42 -3 -42 5 -57 16 -88 61 -8 13 -33 29 -55 36 -32 10 -45 22 -62
57 -12 24 -23 42 -23 39 -6 -21 -5 -50 0 -50 4 0 12 -11 18 -25 7 -14 24 -30
39 -35 51 -19 71 -32 81 -56 20 -42 80 -60 137 -40 6 2 12 -8 13 -21 3 -42 40
-66 88 -59 37 5 46 2 74 -25 23 -23 38 -29 53 -25 63 18 76 18 105 -3 33 -23
69 -27 106 -10 20 9 33 8 66 -5 43 -17 63 -13 102 21 13 12 24 12 58 3 49 -13
73 -7 99 25 16 21 24 24 60 19 48 -7 91 15 91 46 0 15 10 20 55 25 53 7 89 28
111 67 5 8 31 25 57 37 53 24 75 60 58 96 -9 18 -10 18 -10 2 -2 -40 -30 -75
-68 -84 -28 -6 -45 -19 -62 -46 -15 -23 -35 -40 -50 -43 -14 -2 -38 -9 -53
-13 -53 -17 -30 15 37 55 36 21 92 61 123 89 31 29 67 57 80 64 12 6 22 16 22
21 0 15 80 130 91 130 16 0 10 -44 -11 -78 -11 -18 -31 -38 -45 -44 -14 -6
-25 -15 -25 -20 0 -9 42 -4 61 8 30 18 -61 -108 -120 -167 -151 -151 -384
-253 -611 -267 -158 -10 -329 9 -425 48 -130 52 -168 70 -230 111 -103 67
-265 240 -265 282 0 9 2 9 8 0 10 -15 58 -27 65 -16 3 5 -10 15 -29 22 -38 14
-64 54 -64 101 0 16 2 30 5 30 2 0 23 -28 46 -62z m1094 21 c10 -15 -25 -101
-39 -96 -11 4 -12 21 -5 67 6 35 31 52 44 29z m334 -28 c20 -13 3 -33 -22 -26
-15 4 -18 3 -9 -3 10 -7 10 -11 -2 -21 -13 -11 -20 -9 -40 6 -23 19 -24 21 -8
36 18 18 58 22 81 8z m-259 -31 c0 -6 -7 -10 -15 -10 -8 0 -23 -16 -33 -36
-27 -52 -36 -26 -11 30 18 41 22 45 40 36 10 -6 19 -15 19 -20z m148 -20 c34
-21 47 -58 15 -45 -10 5 -34 10 -53 13 -42 6 -68 33 -42 44 29 11 46 9 80 -12z
m-109 -29 c8 -14 6 -23 -10 -37 -15 -13 -19 -26 -15 -45 5 -26 -7 -39 -35 -39
-17 0 -9 75 11 108 22 37 35 40 49 13z m-186 -20 c42 -16 67 -51 67 -93 0 -32
-4 -39 -25 -44 -14 -3 -36 -3 -50 0 -18 5 -24 3 -23 -6 2 -8 -9 -14 -26 -16
-20 -3 -27 0 -24 10 3 7 13 12 22 12 21 -2 20 5 -3 30 -11 12 -21 28 -23 36
-2 8 -10 20 -18 26 -12 10 -8 15 20 33 39 24 48 25 83 12z m-173 -26 c36 -19
60 -62 60 -110 0 -32 -2 -35 -30 -35 -24 0 -30 4 -30 21 0 11 -5 29 -10 40 -9
15 -7 19 7 19 15 1 14 4 -6 21 -16 13 -33 18 -48 14 -17 -4 -21 -2 -17 10 9
23 -10 18 -36 -10 -13 -14 -18 -25 -12 -25 7 0 12 -9 12 -20 0 -11 -5 -20 -10
-20 -6 0 -16 -11 -22 -25 -6 -14 -18 -25 -26 -25 -12 0 -14 11 -10 52 4 42 11
57 37 80 36 32 93 38 141 13z m440 5 c16 -10 16 -11 -25 -30 -16 -8 -33 -16
-37 -18 -19 -9 -6 28 14 42 26 19 28 19 48 6z m-490 -125 c18 -22 5 -32 -35
-27 -35 4 -35 5 -19 23 20 23 37 24 54 4z m-377 -70 c33 -13 54 -32 46 -39 -2
-2 -21 -6 -41 -10 -32 -6 -39 -4 -53 18 -16 24 -14 46 4 46 5 0 25 -7 44 -15z
m806 6 c12 -8 12 -13 -3 -36 -15 -23 -23 -26 -48 -21 -17 3 -37 6 -44 6 -28 0
-13 21 29 40 50 22 48 22 66 11z m-574 -67 c112 -18 243 -14 360 11 82 17 99
9 61 -31 -24 -26 -28 -27 -59 -16 -48 17 -84 15 -99 -6 -23 -32 -36 -33 -78
-10 l-40 23 -39 -22 c-22 -13 -42 -23 -45 -23 -3 0 -16 12 -29 26 -26 27 -79
36 -99 16 -19 -19 -43 -14 -71 16 -30 32 -25 46 13 38 14 -3 70 -13 125 -22z"/>
<path d="M1461 2419 c-34 -42 -37 -65 -3 -33 21 20 46 63 40 69 -2 2 -18 -14
-37 -36z"/>
<path d="M1649 2154 c-7 -8 -30 -24 -51 -35 -44 -23 -50 -32 -10 -18 31 11
103 68 86 69 -6 0 -17 -7 -25 -16z"/>
<path d="M2425 2150 c-11 -5 -32 -11 -46 -14 -14 -3 -30 -16 -36 -29 l-11 -23
59 28 c33 16 59 33 59 38 0 6 -1 10 -2 9 -2 0 -12 -4 -23 -9z"/>
<path d="M2197 2122 c-17 -19 -51 -92 -42 -92 2 0 15 16 29 36 14 20 37 45 53
55 l28 19 -26 0 c-14 0 -33 -8 -42 -18z"/>
<path d="M2047 2109 c-20 -11 -57 -83 -57 -109 0 -8 14 8 31 35 17 28 41 58
53 67 24 20 4 25 -27 7z"/>
<path d="M1863 2070 c-24 -10 -45 -45 -61 -103 -14 -50 4 -38 29 19 10 25 31
56 46 69 29 25 24 30 -14 15z"/>
<path d="M1423 1467 c7 -24 115 -58 170 -55 47 3 49 4 22 11 -16 5 -59 17 -95
28 -88 28 -102 30 -97 16z"/>
<path d="M1717 1410 c-75 -48 -125 -72 -164 -80 -30 -7 -52 -14 -49 -17 13
-13 146 28 174 55 7 6 20 12 28 12 8 0 14 4 14 9 0 5 12 14 28 20 32 14 88 58
82 65 -3 2 -54 -27 -113 -64z"/>
<path d="M1397 1348 c13 -15 82 -42 89 -35 1 1 -22 13 -52 27 -42 21 -50 22
-37 8z"/>
<path d="M1030 1713 c0 -4 4 -24 9 -43 5 -19 12 -47 15 -62 4 -16 11 -28 16
-28 24 0 -2 129 -27 138 -7 2 -13 0 -13 -5z"/>
<path d="M970 1479 c-53 -50 -68 -69 -50 -63 32 9 84 49 103 77 13 21 29 58
24 57 -1 -1 -36 -33 -77 -71z"/>
<path d="M2215 1923 c-11 -3 -24 -9 -29 -14 -15 -13 42 -10 89 6 l40 13 -40 0
c-22 0 -49 -2 -60 -5z"/>
<path d="M2073 1830 c31 -20 103 -27 187 -20 22 2 8 6 -40 10 -41 4 -95 10
-120 14 -36 6 -41 5 -27 -4z"/>
<path d="M1950 1780 c0 -5 13 -10 29 -10 17 0 33 5 36 10 4 6 -8 10 -29 10
-20 0 -36 -4 -36 -10z"/>
<path d="M555 1783 c-39 -4 -40 -5 -16 -18 18 -9 31 -10 48 -2 21 9 33 29 16
25 -5 -1 -26 -3 -48 -5z"/>
<path d="M1792 1684 c21 -21 119 -44 183 -43 28 1 41 3 30 6 -11 2 -64 15
-118 29 -116 29 -116 29 -95 8z"/>
<path d="M1675 1620 c8 -13 35 -13 55 0 11 7 5 10 -23 10 -23 0 -36 -4 -32
-10z"/>
<path d="M1905 1591 c-29 -4 -35 -8 -23 -13 10 -4 34 -1 55 7 40 14 33 16 -32
6z"/>
<path d="M2031 1446 c-77 -53 -114 -88 -60 -57 20 12 44 30 54 41 10 11 23 20
30 20 7 0 20 9 30 20 26 28 18 25 -54 -24z"/>
<path d="M590 1432 c0 -5 24 -12 53 -14 28 -2 61 -8 72 -12 15 -7 15 -4 -4 9
-27 21 -121 34 -121 17z"/>
<path d="M640 1404 c0 -17 22 -43 33 -38 8 3 26 -7 40 -22 30 -29 36 -21 11
14 -19 28 -84 64 -84 46z"/>
<path d="M1932 1258 c-7 -7 -11 -36 -11 -67 l1 -56 9 54 c5 30 14 60 20 68 14
16 -3 17 -19 1z"/>
<path d="M1620 1160 c-19 -16 -38 -26 -41 -24 -4 2 -12 -3 -19 -11 -7 -8 -9
-15 -5 -15 4 0 1 -7 -6 -17 -13 -15 -12 -15 6 -5 32 18 111 90 105 95 -3 3
-21 -7 -40 -23z"/>
<path d="M1649 1067 c-50 -47 -73 -66 -133 -110 -10 -8 -17 -20 -14 -27 3 -10
10 -8 26 8 12 12 26 22 30 22 7 0 98 91 136 138 30 36 15 25 -45 -31z"/>
<path d="M648 1095 c13 -24 51 -57 61 -53 3 2 -11 19 -33 38 -24 22 -35 27
-28 15z"/>
<path d="M2085 1080 c22 -10 51 -19 65 -19 14 0 -1 8 -35 19 -74 24 -82 24
-30 0z"/>
<path d="M1644 1011 c-45 -44 -106 -93 -135 -111 -51 -30 -52 -31 -19 -26 53
10 127 66 191 146 74 93 66 91 -37 -9z"/>
<path d="M950 1045 c-1 -5 -1 -21 0 -34 1 -15 -2 -21 -9 -16 -6 3 -3 -10 6
-29 10 -19 24 -38 31 -40 10 -5 10 -1 0 17 -7 12 -15 42 -19 67 -3 25 -7 41
-9 35z"/>
<path d="M981 1010 c0 -14 6 -38 14 -55 l14 -30 -6 40 c-6 50 -22 82 -22 45z"/>
<path d="M847 1014 c-9 -15 20 -84 51 -123 16 -20 53 -48 82 -64 54 -28 72
-29 50 -2 -10 12 -10 15 1 16 8 0 -4 7 -26 15 -50 18 -100 66 -129 123 -13 24
-25 40 -29 35z"/>
<path d="M720 995 c0 -32 91 -155 153 -207 85 -71 95 -76 39 -18 -29 30 -61
67 -70 82 -9 15 -20 28 -24 28 -4 0 -8 7 -8 15 0 8 -3 15 -7 15 -5 0 -21 20
-38 45 -27 39 -45 56 -45 40z"/>
<path d="M1417 935 c-12 -47 -43 -93 -79 -115 -24 -14 -28 -20 -15 -20 50 0
112 83 105 140 -3 24 -4 24 -11 -5z"/>
<path d="M2243 1405 c-36 -32 -17 -32 22 0 17 14 25 25 18 25 -7 0 -25 -11
-40 -25z"/>
<path d="M1007 1290 c-38 -11 -57 -29 -57 -51 0 -22 22 -35 85 -49 93 -21 217
23 189 67 -22 36 -145 54 -217 33z m140 -47 c5 -14 -26 -19 -89 -15 -48 4 -63
16 -30 25 32 9 115 2 119 -10z"/>
<path d="M2162 1179 c10 -5 48 -12 85 -14 l68 -5 -65 15 c-36 7 -74 14 -85 14
-18 0 -18 -1 -3 -10z"/>
<path d="M1710 713 c19 -10 38 -22 42 -28 5 -6 8 -6 8 1 0 17 -21 32 -55 38
-30 6 -29 6 5 -11z"/>
<path d="M1050 2675 c-10 -12 -10 -18 0 -30 7 -8 18 -15 25 -15 7 0 18 7 25
15 10 12 10 18 0 30 -7 8 -18 15 -25 15 -7 0 -18 -7 -25 -15z"/>
<path d="M1204 2635 c-4 -10 -1 -21 7 -26 20 -12 34 -5 34 17 0 24 -33 31 -41
9z"/>
<path d="M1291 2586 c-12 -14 -5 -26 16 -26 15 0 18 26 4 34 -5 3 -14 0 -20
-8z"/>
<path d="M1731 2581 c-13 -24 8 -55 34 -50 28 6 42 34 26 53 -18 22 -48 20
-60 -3z"/>
<path d="M1917 2484 c-12 -13 -8 -42 8 -48 25 -9 46 5 43 28 -3 21 -37 34 -51
20z"/>
<path d="M660 2459 c-13 -11 -25 -28 -26 -37 -2 -12 4 -10 20 9 12 14 31 31
42 37 14 8 15 11 4 11 -8 0 -26 -9 -40 -20z"/>
<path d="M752 2468 c-18 -18 -14 -30 6 -20 21 12 42 5 42 -14 0 -8 5 -14 10
-14 14 0 13 33 -2 48 -7 7 -19 12 -28 12 -9 0 -21 -5 -28 -12z"/>
<path d="M1817 2407 c-8 -21 8 -39 29 -35 27 5 25 42 -2 46 -12 2 -24 -3 -27
-11z"/>
<path d="M1010 2401 c-16 -11 -15 -12 41 -15 47 -3 102 -46 128 -99 26 -52 27
-27 2 29 -10 23 -33 51 -50 64 -36 25 -99 36 -121 21z"/>
<path d="M2290 2395 c-18 -22 -1 -50 31 -50 20 0 24 5 24 30 0 23 -5 31 -21
33 -11 2 -27 -4 -34 -13z"/>
<path d="M2132 2378 c-23 -23 -7 -68 24 -68 14 0 44 27 44 40 0 13 -30 40 -44
40 -6 0 -17 -5 -24 -12z"/>
<path d="M1913 2334 c-9 -23 13 -40 32 -24 12 10 13 16 4 26 -15 18 -28 18
-36 -2z"/>
<path d="M1090 2302 c0 -58 -20 -92 -70 -122 -23 -14 -60 -40 -81 -58 -62 -55
-63 -128 -1 -184 l26 -23 -22 31 c-26 38 -36 77 -28 109 10 39 60 89 115 114
45 21 52 30 66 72 9 26 22 50 28 52 8 3 4 13 -10 28 l-23 23 0 -42z"/>
<path d="M772 2288 c19 -28 72 -61 93 -56 8 2 -11 19 -47 41 -52 32 -59 35
-46 15z"/>
<path d="M1132 2268 c-15 -15 -16 -92 -1 -120 10 -18 9 -20 -6 -14 -64 24
-122 7 -155 -46 -32 -52 -27 -103 14 -144 39 -39 81 -45 116 -16 28 23 22 67
-11 77 -22 7 -49 -10 -49 -32 0 -8 -4 -11 -10 -8 -18 11 -11 51 13 73 17 16
36 22 71 22 44 0 52 -4 108 -57 34 -33 72 -82 89 -115 41 -80 105 -111 143
-69 31 34 -2 99 -44 88 -16 -4 -24 2 -34 28 -8 19 -41 63 -73 98 -67 74 -102
129 -123 194 -16 50 -29 60 -48 41z m58 -151 c19 -33 11 -40 -28 -25 -31 12
-43 28 -22 28 6 0 10 7 10 16 0 22 22 12 40 -19z m215 -247 c8 0 15 -6 15 -14
0 -30 -63 5 -74 42 -7 22 -7 22 18 -3 14 -14 32 -25 41 -25z"/>
<path d="M864 2138 c-39 -34 -74 -98 -73 -133 0 -20 0 -20 9 0 7 17 9 17 9 3
1 -10 6 -18 11 -18 6 0 10 -8 10 -18 0 -47 104 -134 157 -131 11 0 5 5 -12 11
-132 46 -177 197 -87 291 35 37 21 34 -24 -5z"/>
<path d="M513 1994 c-3 -8 -1 -20 6 -27 14 -14 47 15 37 32 -10 16 -36 13 -43
-5z"/>
<path d="M410 1965 c0 -21 30 -31 40 -14 11 17 3 29 -21 29 -10 0 -19 -7 -19
-15z"/>
<path d="M1241 1925 c-1 -22 -8 -50 -16 -62 -15 -21 -14 -23 23 -42 21 -11 55
-38 75 -60 42 -47 47 -49 47 -21 0 13 5 18 15 14 29 -11 15 2 -55 51 -38 28
-67 55 -65 62 2 7 -2 31 -10 55 l-13 43 -1 -40z"/>
<path d="M1467 1930 c39 -24 77 -93 69 -126 -4 -13 -15 -28 -26 -34 -18 -10
-19 -13 -5 -26 8 -9 13 -20 10 -25 -4 -5 -4 -9 -1 -9 3 0 13 14 22 32 12 23
15 46 11 86 -6 57 -23 84 -69 108 -40 21 -48 17 -11 -6z"/>
<path d="M1175 1858 l-28 -22 23 -8 c13 -5 25 -6 28 -3 3 3 0 5 -7 5 -8 0 -6
8 5 25 20 31 15 31 -21 3z"/>
<path d="M2561 1824 c-40 -29 -15 -82 33 -70 28 7 40 31 26 56 -14 26 -35 31
-59 14z"/>
<path d="M1277 1731 c3 -22 0 -54 -6 -73 -8 -23 -8 -29 0 -21 6 6 13 29 16 52
3 22 9 38 14 35 17 -10 9 13 -10 30 -19 17 -19 16 -14 -23z"/>
<path d="M354 1635 c-7 -18 3 -35 22 -35 20 0 30 30 13 41 -20 12 -29 11 -35
-6z"/>
<path d="M2522 1523 c2 -10 10 -18 18 -18 8 0 16 8 18 18 2 12 -3 17 -18 17
-15 0 -20 -5 -18 -17z"/>
<path d="M2624 1455 c-4 -9 -2 -21 4 -27 15 -15 44 -1 40 19 -4 23 -36 29 -44
8z"/>
<path d="M2560 1216 c0 -15 24 -28 34 -19 13 14 5 33 -14 33 -11 0 -20 -6 -20
-14z"/>
<path d="M2532 1088 c-31 -31 7 -81 43 -55 23 18 16 61 -10 65 -11 1 -26 -3
-33 -10z"/>
<path d="M382 1048 c7 -20 43 -21 59 -2 13 16 12 16 -8 6 -14 -8 -24 -9 -28
-2 -9 14 -27 12 -23 -2z"/>
<path d="M433 919 c-16 -16 -5 -39 19 -39 14 0 19 6 16 22 -4 25 -19 33 -35
17z"/>
<path d="M2513 874 c-8 -20 8 -36 26 -25 15 10 8 41 -9 41 -6 0 -13 -7 -17
-16z"/>
</g>
</svg>
